<svg width="1024" height="1024" viewBox="0 0 1024 1024" fill="none" xmlns="http://www.w3.org/2000/svg">
<g clip-path="url(#clip0_203_4)">
<path d="M359.383 172.579H430.321V490.817C430.321 512.503 426.206 530.401 417.976 544.51C409.745 558.619 397.857 569.136 382.311 576.059C366.764 582.984 347.887 586.445 325.679 586.445C323.066 586.445 320.649 586.379 318.428 586.249C316.207 586.249 313.791 586.184 311.178 586.053V528.246C313.138 528.376 314.901 528.441 316.468 528.441C318.036 528.571 319.669 528.638 321.367 528.638C334.954 528.638 344.687 525.305 350.565 518.643C356.444 512.111 359.383 502.508 359.383 489.836V172.579ZM394.657 129.859C383.291 129.859 373.558 126.136 365.458 118.689C357.489 111.113 353.505 102.033 353.505 91.4514C353.505 80.7378 357.489 71.6596 365.458 64.2123C373.558 56.6359 383.291 52.8469 394.657 52.8469C405.891 52.8469 415.494 56.6359 423.462 64.2123C431.563 71.6596 435.611 80.7378 435.611 91.4514C435.611 102.033 431.563 111.113 423.462 118.689C415.494 126.136 405.891 129.859 394.657 129.859ZM589.882 479.647C570.808 479.647 553.629 476.25 538.344 469.457C523.19 462.533 511.171 452.343 502.287 438.887C493.534 425.431 489.158 408.84 489.158 389.114C489.158 372.131 492.294 358.086 498.564 346.982C504.835 335.878 513.392 326.995 524.235 320.332C535.078 313.67 547.293 308.639 560.88 305.243C574.597 301.716 588.77 299.169 603.402 297.601C621.039 295.772 635.343 294.138 646.317 292.702C657.292 291.134 665.26 288.782 670.225 285.647C675.319 282.38 677.867 277.351 677.867 270.558V269.383C677.867 254.62 673.49 243.189 664.737 235.09C655.985 226.989 643.378 222.94 626.917 222.94C609.543 222.94 595.76 226.728 585.57 234.306C575.511 241.882 568.717 250.831 565.19 261.151L498.956 251.746C504.182 233.456 512.803 218.172 524.822 205.891C536.841 193.48 551.539 184.205 568.914 178.064C586.288 171.795 605.493 168.659 626.525 168.659C641.026 168.659 655.463 170.357 669.833 173.754C684.203 177.15 697.332 182.768 709.22 190.606C721.109 198.314 730.646 208.831 737.83 222.156C745.147 235.482 748.805 252.138 748.805 272.126V473.572H680.61V432.224H678.259C673.948 440.586 667.873 448.424 660.034 455.74C652.327 462.925 642.594 468.738 630.837 473.18C619.21 477.492 605.557 479.647 589.882 479.647ZM608.301 427.522C622.541 427.522 634.887 424.714 645.338 419.096C655.788 413.347 663.823 405.77 669.441 396.365C675.188 386.958 678.063 376.704 678.063 365.598V330.129C675.842 331.958 672.054 333.657 666.697 335.225C661.471 336.793 655.593 338.164 649.061 339.34C642.529 340.515 636.063 341.561 629.661 342.475C623.26 343.39 617.708 344.174 613.005 344.827C602.423 346.264 592.951 348.616 584.589 351.881C576.229 355.147 569.632 359.72 564.798 365.598C559.965 371.347 557.547 378.793 557.547 387.938C557.547 401.002 562.317 410.866 571.853 417.528C581.389 424.191 593.539 427.522 608.301 427.522ZM820.133 473.572V172.579H888.916V222.744H892.051C897.537 205.368 906.944 191.978 920.27 182.573C933.725 173.035 949.075 168.267 966.32 168.267C970.238 168.267 974.616 168.464 979.448 168.856C984.413 169.117 988.528 169.573 991.794 170.227V235.482C988.789 234.436 984.021 233.522 977.488 232.738C971.088 231.823 964.883 231.367 958.873 231.367C945.939 231.367 934.313 234.175 923.992 239.792C913.803 245.279 905.768 252.922 899.889 262.719C894.01 272.518 891.071 283.818 891.071 296.62V473.572H820.133Z" fill="#FC4D16"/>
<path d="M55.0357 953.151V652.157H125.973V953.151H55.0357ZM90.7013 609.438C79.4665 609.438 69.7981 605.715 61.6991 598.267C53.5985 590.691 49.5498 581.611 49.5498 571.03C49.5498 560.316 53.5985 551.238 61.6991 543.791C69.7981 536.214 79.4665 532.425 90.7013 532.425C102.067 532.425 111.734 536.214 119.703 543.791C127.802 551.238 131.853 560.316 131.853 571.03C131.853 581.611 127.802 590.691 119.703 598.267C111.734 605.715 102.067 609.438 90.7013 609.438ZM269.858 776.787V953.151H198.92V652.157H266.722V703.303H270.249C277.173 686.45 288.212 673.058 303.367 663.13C318.652 653.202 337.529 648.237 359.998 648.237C380.771 648.237 398.864 652.68 414.28 661.562C429.826 670.445 441.845 683.314 450.336 700.167C458.957 717.02 463.204 737.465 463.074 761.502V953.151H392.136V772.476C392.136 752.358 386.91 736.615 376.459 725.249C366.139 713.884 351.833 708.201 333.545 708.201C321.132 708.201 310.094 710.945 300.426 716.431C290.89 721.788 283.378 729.561 277.892 739.751C272.535 749.94 269.858 762.286 269.858 776.787Z" fill="#FC4D16"/>
<path d="M222.25 274.192L129.255 341.057C91.5975 368.725 115.42 407.921 136.941 407.921H290.653V472.881H126.182C54.7099 472.881 0.911133 367.157 96.2088 299.555C182.494 238.345 188.137 234.423 188.432 234.227H43.1816V176.91H259.911C276.888 176.91 290.653 190.673 290.653 207.652V376.734H222.25V274.192Z" fill="#FC4D16"/>
</g>
<defs>
<clipPath id="clip0_203_4">
<rect width="1024" height="1024" fill="white"/>
</clipPath>
</defs>
</svg>
