<svg width="754" height="287" viewBox="0 0 754 287" fill="none" xmlns="http://www.w3.org/2000/svg">
<path d="M169.788 64.2914H207.878V235.174C207.878 246.818 205.669 256.429 201.249 264.005C196.83 271.581 190.447 277.228 182.099 280.945C173.751 284.664 163.615 286.522 151.689 286.522C150.287 286.522 148.988 286.487 147.796 286.417C146.604 286.417 145.305 286.382 143.902 286.312V255.271C144.955 255.342 145.902 255.376 146.744 255.376C147.585 255.446 148.463 255.482 149.375 255.482C156.67 255.482 161.895 253.693 165.052 250.115C168.21 246.608 169.788 241.451 169.788 234.647V64.2914ZM188.727 41.3527C182.625 41.3527 177.398 39.3537 173.049 35.3547C168.771 31.2865 166.631 26.4111 166.631 20.7292C166.631 14.9764 168.771 10.1017 173.049 6.1028C177.398 2.03455 182.625 0 188.727 0C194.761 0 199.916 2.03455 204.196 6.1028C208.545 10.1017 210.719 14.9764 210.719 20.7292C210.719 26.4111 208.545 31.2865 204.196 35.3547C199.916 39.3537 194.761 41.3527 188.727 41.3527ZM293.556 229.176C283.314 229.176 274.09 227.352 265.882 223.704C257.745 219.986 251.291 214.515 246.521 207.289C241.822 200.064 239.471 191.155 239.471 180.563C239.471 171.444 241.155 163.902 244.522 157.94C247.889 151.977 252.484 147.207 258.306 143.629C264.129 140.052 270.688 137.351 277.983 135.528C285.349 133.633 292.96 132.266 300.817 131.424C310.286 130.442 317.968 129.564 323.86 128.793C329.753 127.951 334.032 126.689 336.697 125.005C339.434 123.251 340.801 120.55 340.801 116.903V116.272C340.801 108.345 338.451 102.206 333.752 97.8576C329.051 93.5079 322.282 91.3339 313.443 91.3339C304.113 91.3339 296.713 93.3676 291.241 97.4367C285.84 101.505 282.192 106.31 280.298 111.852L244.733 106.801C247.538 96.9802 252.169 88.7736 258.622 82.1789C265.076 75.5148 272.967 70.5345 282.297 67.2372C291.627 63.8705 301.939 62.1867 313.233 62.1867C321.019 62.1867 328.771 63.0988 336.487 64.9228C344.203 66.7461 351.254 69.7628 357.637 73.9714C364.02 78.1106 369.141 83.7578 373 90.9129C376.928 98.068 378.892 107.012 378.892 117.745V225.914H342.274V203.711H341.012C338.696 208.201 335.435 212.41 331.226 216.339C327.088 220.197 321.861 223.318 315.548 225.703C309.304 228.019 301.974 229.176 293.556 229.176ZM303.447 201.187C311.094 201.187 317.722 199.679 323.335 196.662C328.946 193.575 333.261 189.507 336.276 184.456C339.363 179.405 340.907 173.899 340.907 167.936V148.89C339.714 149.872 337.68 150.784 334.804 151.626C331.998 152.468 328.841 153.204 325.334 153.836C321.826 154.467 318.354 155.029 314.917 155.52C311.479 156.011 308.498 156.432 305.972 156.782C300.29 157.554 295.204 158.817 290.715 160.57C286.226 162.324 282.683 164.779 280.088 167.936C277.492 171.023 276.194 175.021 276.194 179.932C276.194 186.946 278.755 192.243 283.875 195.82C288.997 199.398 295.52 201.187 303.447 201.187ZM417.193 225.914V64.2914H454.126V91.2282H455.81C458.756 81.8982 463.807 74.7084 470.962 69.658C478.187 64.5366 486.43 61.9763 495.689 61.9763C497.794 61.9763 500.144 62.0819 502.74 62.2924C505.405 62.4327 507.615 62.6778 509.368 63.0286V98.0681C507.755 97.5068 505.195 97.0157 501.687 96.5948C498.25 96.1037 494.918 95.8585 491.691 95.8585C484.747 95.8585 478.504 97.3665 472.961 100.382C467.49 103.329 463.176 107.433 460.019 112.694C456.862 117.955 455.284 124.023 455.284 130.897V225.914H417.193ZM534.675 225.914V64.2914H572.766V225.914H534.675ZM553.825 41.3527C547.793 41.3527 542.602 39.3537 538.252 35.3547C533.903 31.2865 531.728 26.4111 531.728 20.7292C531.728 14.9764 533.903 10.1017 538.252 6.1028C542.602 2.03455 547.793 0 553.825 0C559.928 0 565.12 2.03455 569.398 6.1028C573.748 10.1017 575.922 14.9764 575.922 20.7292C575.922 26.4111 573.748 31.2865 569.398 35.3547C565.12 39.3537 559.928 41.3527 553.825 41.3527ZM650.025 131.213V225.914H611.935V64.2914H648.342V91.7548H650.236C653.954 82.7054 659.881 75.5148 668.018 70.1838C676.226 64.8527 686.362 62.1867 698.428 62.1867C709.582 62.1867 719.295 64.572 727.573 69.3419C735.926 74.1117 742.38 81.0217 746.936 90.0711C751.567 99.1204 753.845 110.099 753.779 123.006V225.914H715.688V128.898C715.688 118.096 712.881 109.642 707.266 103.539C701.725 97.4367 694.044 94.3853 684.223 94.3853C677.559 94.3853 671.631 95.8586 666.44 98.8043C661.32 101.681 657.286 105.855 654.34 111.326C651.463 116.797 650.025 123.427 650.025 131.213Z" fill="#FC4D16"/>
<path d="M96.1532 118.854L46.2183 154.758C25.9975 169.614 38.7891 190.661 50.3451 190.661H132.883V225.542H44.5684C6.19028 225.542 -22.6977 168.772 28.4736 132.473C74.8058 99.6056 77.8358 97.4993 77.9942 97.3944H0V66.6172H116.376C125.492 66.6172 132.883 74.0076 132.883 83.1246V173.915H96.1532V118.854Z" fill="#FC4D16"/>
</svg>
